<?xml version="1.0" encoding="utf-8"?>
<!-- Generator: Adobe Illustrator 24.0.1, SVG Export Plug-In . SVG Version: 6.00 Build 0)  -->
<svg version="1.1" xmlns="http://www.w3.org/2000/svg" xmlns:xlink="http://www.w3.org/1999/xlink" x="0px" y="0px"
	 viewBox="0 0 32 32" style="enable-background:new 0 0 32 32;" xml:space="preserve">
<style type="text/css">
	.st0{fill:#FFFFFF;}
	.st1{fill:#0092AC;}
</style>
<g>
	<circle class="st0" cx="16" cy="16" r="16"/>
	<path class="st1" d="M16,1c8.271,0,15,6.729,15,15s-6.729,15-15,15S1,24.271,1,16S7.729,1,16,1 M16,0C7.163,0,0,7.163,0,16
		c0,8.837,7.163,16,16,16s16-7.163,16-16C32,7.163,24.837,0,16,0L16,0z"/>
</g>
<g>
	<polygon class="st1" points="21.866,12.586 21.89,12.59 21.895,12.558 21.863,12.496 21.833,12.474 21.826,12.491 21.844,12.551 	
		"/>
	<polygon class="st1" points="21.797,13.074 21.781,13.079 21.761,13.077 21.74,13.086 21.699,13.131 21.673,13.208 21.69,13.203 
		21.697,13.186 21.746,13.136 21.769,13.133 21.807,13.091 	"/>
	<polygon class="st1" points="22.036,13.092 22.086,13.089 22.102,13.061 22.077,13.042 22.047,13.043 22.037,13.064 22.004,13.079 
			"/>
	<polygon class="st1" points="21.73,13.185 21.713,13.209 21.726,13.213 21.759,13.206 21.771,13.176 21.76,13.165 	"/>
	<polygon class="st1" points="21.889,13.002 21.88,13.022 21.9,13.035 21.954,13.036 21.971,13.048 22,13.033 22.009,13.003 
		21.984,12.981 21.921,12.999 	"/>
	<polygon class="st1" points="21.888,12.964 21.909,12.928 21.934,12.92 21.953,12.887 21.933,12.883 21.903,12.907 21.881,12.919 
		21.856,12.949 21.864,12.991 	"/>
	<path class="st1" d="M25.284,14.873l0.026-0.026l-0.007-0.117l-0.025-0.017l-0.01-0.058l-0.077-0.181v-0.061l-0.013-0.075
		l-0.144-0.069l-0.083,0.003L24.892,14.3l-0.042-0.062l-0.048-0.01l-0.048-0.058l-0.064-0.034l-0.045-0.007l-0.099-0.113l-0.08-0.12
		l-0.038-0.01l-0.054-0.055l-0.048,0.003l-0.134-0.102h-0.061l-0.067-0.031l-0.041,0.024H23.96l-0.038-0.021l-0.042,0.021
		l-0.019,0.031l-0.026-0.027l-0.061-0.048l-0.01,0.021l-0.026-0.024l-0.009,0.031v0.024l-0.035-0.031l-0.006-0.024l-0.026-0.008
		l0.008,0.024l-0.013,0.01l-0.065-0.027L23.57,13.68l-0.055-0.011l-0.121-0.062l-0.046,0.003l-0.002,0.014l0.01,0.027l-0.01,0.013
		l-0.026-0.015l-0.011,0.007l-0.007,0.02l-0.042,0.022l-0.015,0.024l-0.006,0.055l-0.022-0.041l-0.013-0.036l-0.022,0.01
		l0.003,0.044l-0.037,0.075v0.063l-0.013-0.06l0.014-0.06l-0.008-0.053l0.022-0.077l0.019-0.019l-0.016-0.015l-0.035-0.002
		l0.046-0.056l-0.061-0.07l-0.035-0.06l-0.034,0.003l-0.049-0.008l-0.029,0.039l-0.029,0.015l-0.014-0.036l-0.021-0.013
		l-0.009-0.034l-0.026-0.022l-0.035,0.003l-0.018-0.024l-0.03-0.012l-0.018,0.024v-0.02l-0.024-0.015l-0.016-0.034L22.703,13.3
		l-0.049-0.015l-0.065-0.041l-0.019-0.003l-0.011,0.021l-0.04-0.029l-0.029,0.003l-0.006,0.029l-0.019,0.002l-0.011-0.032
		l-0.051-0.002l-0.043,0.026l-0.024,0.046l0.003,0.027l-0.048,0.051l-0.062,0.039l-0.08,0.049l-0.038,0.051l-0.024,0.066
		l-0.009,0.065l-0.021,0.034l-0.036,0.041l0.003,0.028l0.007,0.049l-0.008,0.089l-0.014-0.054l-0.03-0.053l0.001-0.039l0.03-0.041
		l0.036-0.032l-0.006-0.065l0.018-0.055l-0.004-0.029l-0.026-0.001l-0.052,0.02l-0.057-0.018l-0.049,0.003l-0.04,0.011l-0.028-0.026
		l0.032,0.004l0.038-0.03l0.039-0.01l0.066,0.013l0.038-0.01l0.035-0.047l0.016-0.001l0.021,0.017l0.022-0.008l0.038-0.024
		l0.065-0.024v-0.055l0.057-0.072V13.22l0.022-0.034l0.003-0.041l-0.061-0.014l-0.048-0.041H22.14l-0.064,0.041l-0.054,0.004
		L21.946,13.1l-0.083-0.007l-0.061,0.068l0.003,0.027l0.02,0.016l0.013,0.023l-0.029,0.004l-0.018,0.01l-0.016,0.041l-0.011-0.036
		l-0.021-0.009l-0.048,0.02l-0.051,0.077l-0.068,0.084l0.051-0.077l-0.002-0.049l0.011-0.028l0.005-0.034h-0.022l-0.045,0.039
		l-0.022,0.055l-0.022,0.061l-0.037,0.026l0.035-0.072l0.006-0.056l0.078-0.104l0.019-0.07l0.029-0.043l0.043-0.026l0.046-0.036
		l0.034-0.015l0.041-0.067l0.104-0.113l0.006-0.027l0.021-0.017l-0.022-0.031l0.008-0.033l0.014-0.013l0.002-0.046l-0.041-0.032
		l-0.046,0.003l-0.014,0.017l-0.021-0.038l-0.029-0.089l-0.049-0.131l-0.045-0.068l-0.032-0.091l0.002-0.049l-0.011-0.049
		l-0.018-0.019l-0.007-0.046l-0.027-0.056l-0.011,0.007l0.003,0.037l-0.017,0.029l-0.051,0.036l0.001-0.001l0.038-0.054l-0.003-0.06
		l-0.04-0.048l-0.019,0.022L21.49,11.94l-0.005-0.038l-0.078-0.087l-0.021-0.008l-0.051-0.053l-0.124-0.034l-0.056-0.036
		l-0.065-0.007l-0.04,0.031l-0.04,0.024l0,0l0.043-0.056l-0.003-0.032l-0.046-0.022l-0.077-0.014l-0.087-0.036l-0.029,0.003
		l-0.04,0.019l-0.068-0.007l-0.086,0.019l-0.072-0.022l-0.097,0.002l-0.056,0.022l-0.009,0.054v0l-0.013-0.048v-0.058l-0.014-0.036
		l-0.083-0.024l-0.072-0.08l-0.041-0.034l-0.027,0.015l-0.045,0.016l-0.03,0.037l-0.01,0.044l-0.008-0.057l0.01-0.073l0.014-0.043
		l-0.022-0.078l-0.034-0.027l-0.087-0.057l-0.058-0.07l-0.006-0.038l-0.042-0.044l-0.041-0.01l-0.007-0.004l0.002-0.007
		l-0.016-0.011l-0.085-0.041l-0.034-0.002l-0.029,0.013l-0.043-0.01l-0.026,0.001l-0.038,0.017l-0.069,0.012l-0.036-0.004
		l0.004-0.001l0.027,0.004l0.034-0.024l0.021-0.039l0.046-0.038l0.012-0.03l-0.031-0.023l0.003-0.013l-0.014-0.042l-0.064-0.036
		l-0.071-0.02l-0.022-0.024l-0.029-0.02l-0.041-0.002l-0.013-0.021l-0.048-0.022l-0.032,0.002l0.001,0.023l-0.015-0.021
		l-0.018-0.048l-0.045-0.024l-0.009-0.019l0.018-0.015l0.096,0.003h0.002l0.037-0.026l0.065-0.007l0.009-0.054l-0.065,0.014
		l-0.099-0.022l-0.072,0.01l-0.049-0.003l-0.096,0.037l-0.031-0.014l-0.002-0.001l-0.044,0.005l-0.082,0.062l-0.04,0.01
		l-0.051,0.028l-0.019,0.025l-0.063,0.008l-0.021,0.013l-0.03-0.011l-0.095-0.068l-0.02-0.045l-0.034-0.006l-0.109,0.008
		l-0.208,0.038h-0.1l-0.036-0.02l-0.014-0.031v-0.033l0.026-0.002l-0.005-0.055l-0.047-0.07l-0.045-0.013l-0.104,0.009l-0.046-0.028
		l-0.039-0.003l-0.025,0.009l-0.033-0.057l0-0.063l-0.017-0.082l-0.027-0.011l-0.065,0.029l-0.063,0.079l-0.002,0.003l0.016,0.056
		l0.025,0.025l0.044-0.025l0.035,0.003l0.031,0.036l-0.005,0.022l-0.032,0.01l-0.041-0.021l-0.026-0.019l-0.015,0.021l-0.001,0.017
		l-0.047,0.027l-0.098,0.019l-0.097,0.045l-0.002,0.001L17.2,10.437v0.042l0.025,0.051v0.095l0.01,0.066l0.018,0.052l-0.03,0.068
		l-0.073,0.045l-0.03-0.005v-0.065l-0.045-0.055l-0.011-0.042l0.04-0.037l0.003-0.028l0.083-0.089l0-0.078l-0.026-0.05l0.003-0.021
		l-0.002-0.032l-0.036-0.028l-0.016-0.035l0.009-0.027l0.047-0.022l0.055-0.014l0.046-0.056h0l0.001-0.001l0.007-0.009l0.026-0.021
		l0.011-0.032l-0.027-0.039l-0.082-0.048l-0.039-0.003l-0.013,0.024l-0.003,0.02l-0.03,0.005l-0.017,0.014l-0.036-0.005
		l-0.033,0.015l-0.024,0.028l0.019,0.024l-0.011,0.017l-0.056,0.03l-0.077,0.05l-0.05,0.038l-0.057,0.013l-0.064,0.005l-0.074-0.009
		l-0.05,0.029l0.004,0.035l0.011,0.028l-0.06-0.007l-0.055-0.025l-0.002-0.001l-0.032,0.002l-0.075,0.049l-0.019,0.034l-0.05,0.063
		l-0.059,0.121l-0.011,0.048l0.026-0.012l0.011,0.013l0.006,0.036l-0.011,0.038l-0.028,0.015l-0.04,0.003l-0.035,0.02l-0.058,0.06
		l-0.023,0.013l-0.044,0.068l-0.022,0.003L15.98,10.92l0.015,0.053l0.038,0.047v0.054l-0.02,0.045l-0.017-0.001l-0.035-0.032
		l0.003-0.012l0.018-0.033l-0.037-0.017l-0.014-0.044l-0.051-0.048l-0.018-0.017l-0.028-0.017l-0.007-0.023l-0.041-0.052
		l-0.094-0.06l-0.058-0.015l-0.096,0l-0.029-0.007l-0.012-0.022l-0.037-0.017l-0.026,0.004l-0.062,0.048l-0.067,0.017l-0.135,0.073
		l-0.04,0.04l-0.035,0.005l-0.07-0.003l-0.076-0.056l-0.055-0.028l-0.022,0.021l0.029,0.02v0.015l-0.027,0.005l-0.033-0.018
		l-0.008-0.013l0.004-0.004l0.023-0.008l-0.021-0.025l-0.02,0.002l-0.024-0.008l-0.022-0.025l-0.005-0.016l-0.003-0.01l-0.001-0.003
		l-0.003-0.009l-0.033-0.026l-0.035-0.012L14.67,10.66l-0.013-0.038l-0.045-0.049l-0.026-0.045l-0.006-0.052l-0.017-0.047
		l-0.03,0.007l-0.006,0.021h-0.03l0.002-0.004h0l0.002-0.004l0.002-0.003l0.023-0.015l-0.007-0.04l-0.024-0.033l-0.01-0.046
		l0.026-0.055l0.014-0.038l0.003-0.084l-0.027,0.058l-0.006,0.02l-0.01,0.006v-0.021l0.011-0.036l0.021-0.053l-0.007-0.031
		l0.002-0.031l0.023-0.063l0.006,0.002l-0.005,0.012L14.534,10c0,0-0.002,0.029-0.002,0.038v0.055l0.022,0.003l0.02-0.036
		l0.011-0.095l-0.001-0.108l0.009-0.025L14.574,9.8l-0.012-0.006l0-0.017l0.011-0.013l0.007,0.001l0.015,0.027l0.017-0.075
		l0.036-0.048l0.017-0.032l0.005-0.03L14.648,9.59l-0.002-0.016l0.013-0.029l0.001-0.002l-0.007-0.04l0.003-0.062l0.012-0.023
		l0.025-0.028l0.005-0.005l-0.015-0.028l-0.053-0.046l-0.056-0.026l-0.007,0.018l0.015,0.032l-0.036-0.001l-0.055-0.006
		l-0.022-0.019l-0.044-0.006h-0.026l0.003-0.006l0.031-0.01L14.43,9.265l0.012-0.003l0.033,0.008l0.062,0.02l0.017-0.014
		l-0.047-0.04l-0.054-0.032l-0.042-0.005l-0.035,0.008l-0.029-0.015L14.338,9.22l-0.023-0.017l-0.099-0.01l-0.092-0.005
		l-0.049-0.045l-0.054-0.029l-0.014,0.041l0.012,0.01l-0.026,0.012l-0.019,0.015l-0.035-0.013l-0.074,0.021L13.771,9.19
		l-0.132,0.004l-0.055,0.032l-0.02-0.018l-0.002-0.001l-0.009-0.008l0,0l-0.012-0.01l-0.047-0.006l-0.01,0.026l-0.03-0.022h-0.03
		l-0.011-0.021l0.016-0.036l0.036-0.04l0.025,0.023l0.067-0.099l0.023-0.066l0.002-0.083L13.558,8.84l0.009-0.066l0.023-0.041
		l0.007-0.118l0.007-0.027l-0.006-0.033h-0.037l-0.018,0.018L13.542,8.57l0.002,0l-0.004-0.007l0.035-0.033l0.047-0.058l0.014-0.005
		l-0.003,0.035l-0.021,0.023l0.002,0.02l0.05,0.033l0.021,0.052l0.017-0.018l0.042-0.078l0.035-0.149l0.029-0.05l-0.037,0.006
		l-0.02,0.022l-0.011-0.006V8.345l0.048-0.054l0.011-0.045h-0.042l-0.022-0.02l0.01-0.011l0.045-0.03l0.005-0.065l0.018-0.032
		l0.096-0.093l0.05-0.09l0.036-0.062L13.99,7.788l0-0.002l-0.068-0.092l-0.054,0.005l0.01,0.029L13.86,7.736l-0.101-0.027
		l-0.094,0.004l0.004,0.026l-0.046,0.023l-0.018-0.019L13.544,7.75l-0.032,0.047l-0.185-0.003l-0.151,0.039v0.045l0.029,0.003
		L13.13,7.972l-0.006,0.15l0.005,0.015L13.05,8.229v0.082l-0.04,0.051L12.979,8.37l-0.108,0.061l0.018,0.019l0.033-0.023
		l-0.007,0.025l-0.002,0.066l-0.04,0.051l-0.027,0.002l-0.007,0.019L12.821,8.57l-0.047-0.023l0.008-0.021l0.055-0.03l-0.082-0.025
		l-0.019,0.027l-0.044-0.014l-0.062,0.002l-0.04,0.036L12.54,8.523L12.459,8.53l-0.014,0.022l-0.089,0.055h-0.021l-0.02-0.025
		l-0.081,0.018l-0.046,0.023l-0.015-0.052l-0.052-0.078l-0.065-0.029l-0.015-0.019l-0.064-0.002L11.96,8.447l-0.026-0.03
		l-0.091-0.116l-0.011-0.036l0.003-0.037l-0.041-0.065l-0.02-0.053L11.651,7.97l-0.009-0.044l-0.024-0.04l0.016-0.032L11.621,7.82
		l-0.004-0.017l0.022-0.021l-0.002-0.073L11.58,7.611l0.006-0.05l-0.015-0.092l-0.01-0.035l0.034-0.048l0.011-0.116l-0.011-0.072
		l0.024-0.117l0-0.001l-0.003-0.033l0.017-0.034l-0.003-0.004l0.031-0.062L11.66,6.891l0.01,0.013l0.017-0.062H11.66l-0.005,0.034
		L11.625,7l-0.006-0.009V6.939l0.022-0.023l0.014-0.067l0.008-0.018l-0.001,0.005l0.028-0.013l0.011-0.04l-0.03,0.003L11.664,6.82
		l-0.026-0.021l0.025-0.032V6.705l0.024,0.002l-0.005,0.034l-0.011,0.034l0.041-0.006l0.007-0.045l0.033-0.05l0.013-0.053
		l0.018-0.021l0.006-0.063L11.8,6.497l0.003-0.005c0.002-0.003,0.001-0.006,0-0.009l-0.019-0.075l0.006-0.104l0.027-0.113
		l-0.013-0.004l-0.04,0.106L11.76,6.404l0,0.001c0,0.001,0.025,0.065,0.031,0.081l0.004,0.013l-0.042,0.038L11.74,6.605l-0.02,0.014
		l0.006-0.02l-0.022-0.012l-0.014-0.03l-0.042-0.011l-0.042-0.023l-0.071-0.026L11.5,6.462l-0.032-0.019L11.44,6.447l-0.023-0.009
		l-0.021-0.027l0.002-0.06l-0.045-0.139L11.35,6.198l0-0.011l0.009-0.089l-0.038-0.042L11.3,6.018L11.29,5.97l-0.035-0.02
		l-0.01-0.03l-0.018-0.013l-0.04-0.119l-0.023-0.012l-0.003-0.053l-0.006-0.036l-0.012-0.022l-0.017-0.051l-0.034-0.057
		l-0.043-0.039l-0.02-0.036l-0.033-0.018L10.969,5.47l-0.007-0.01l-0.021-0.012l-0.042,0.004L10.86,5.446l-0.044-0.001l-0.013,0.029
		l-0.009,0.002L10.79,5.471l-0.021-0.006l-0.028,0.011l-0.025,0.026l-0.033,0.065l-0.021,0.029l0.005,0.014l-0.003,0.014
		l-0.018,0.005l-0.036,0.03l-0.004,0.014l-0.016,0.007l-0.014-0.003l-0.012-0.014l-0.048-0.026l-0.034-0.012l-0.006-0.016
		l-0.047-0.026l-0.025-0.001l-0.012-0.013l-0.002-0.013l-0.01-0.021l-0.025-0.011l-0.012,0.001l-0.018-0.019l-0.009,0l0.001-0.006
		l-0.01-0.035l-0.068-0.088v-0.01l0.021-0.005l0.018-0.014l-0.002-0.042l-0.026-0.026L10.24,5.26l-0.014-0.003L10.213,5.24
		l-0.005-0.05l-0.021-0.037L10.155,5.13l-0.021-0.007l0.007-0.011l0.004-0.027l-0.036-0.032L10.078,5.04l0.006-0.02l-0.024-0.037
		L10.04,4.981l-0.003-0.016l-0.02-0.027L9.981,4.884l-0.045-0.03L9.57,4.841L9.566,4.928l-0.625-0.02L8.196,4.543l0.007-0.016
		L8.188,4.5L7.654,4.51l-0.007,0l0.008,0.065l0.031,0.122L7.712,4.75l0.02,0.029L7.717,4.79L7.71,4.832l0.015,0.046l0.058,0.077
		L7.782,4.975L7.767,4.992l0.011,0.033L7.824,5.07L7.83,5.111l-0.013,0.02L7.812,5.186l0.028,0.027l0.012,0.025l0.001,0.079
		l0.021,0.067l0.042,0.044l0.025-0.002l0.059,0.063l0.031,0.047l0.01,0.038l0.054,0.058l0.023,0.073l0.02,0.009l0.026,0.046
		L8.141,5.793l-0.002,0.03l0.016,0.027L8.146,5.876L8.123,5.865L8.095,5.898l0.008,0.019l0.033,0.006L8.132,5.944L8.12,5.962
		L8.095,5.945L8.04,5.934L8.005,5.92L7.943,5.925l-0.016,0.02l0.049,0.069l0.038,0.018l0.003,0.042l0.024,0.047l0.04,0.014
		l0.047,0.024v0.027l0.034-0.002l0.021,0.009L8.178,6.207l0.02,0.043l0.034-0.016l0.03-0.002L8.3,6.185l0.006,0.002L8.293,6.221
		l0.011,0.077l0,0.002l0.078,0.08l0.036,0.018l0.02-0.006l0.019,0.031l0.027,0.088l0.006,0.095L8.477,6.682L8.44,6.749l0.007,0.042
		l0.047,0.041l0.016-0.004l0.01,0.03l0.043,0.01l0.019,0.043l0.095,0.111l0.034,0.016L8.728,7.07l0.035,0.045L8.81,7.12l0.018,0.027
		l0.005,0.064l0.026,0.022l0.003,0.033l0.021,0.054l0.033,0.01l0.071-0.035L9.026,7.23l0.004-0.067l-0.028-0.02L8.99,7.104
		L8.969,7.08L8.956,7.035L8.922,7.014l-0.014-0.03L8.886,6.953L8.859,6.937L8.84,6.952l0.002,0.031L8.834,6.987L8.829,6.965
		l-0.034-0.03L8.758,6.888L8.753,6.863l0.021-0.047l0.001-0.001L8.774,6.761L8.741,6.713L8.75,6.682L8.749,6.65L8.728,6.623
		L8.729,6.59L8.704,6.559V6.514L8.691,6.491L8.686,6.434L8.696,6.4l-0.013-0.09L8.655,6.26L8.641,6.224L8.615,6.219L8.612,6.246
		L8.614,6.27L8.606,6.278L8.571,6.221L8.568,6.194l0.015-0.036l-0.016-0.03L8.55,6.127l-0.012-0.09L8.499,5.969L8.481,5.962
		L8.442,5.924L8.441,5.871l0.005-0.052L8.407,5.754L8.377,5.747L8.363,5.729L8.358,5.68l0-0.002l-0.03-0.034L8.292,5.625
		l-0.01-0.038L8.29,5.557L8.277,5.492l0-0.003L8.214,5.444L8.193,5.408L8.172,5.407l0.001-0.041l-0.031-0.07L8.12,5.27l0.018-0.037
		L8.132,5.066L8.121,4.967l0.019-0.052L8.16,4.832l-0.007-0.04l0.059,0.03l0.039,0.065l0.029,0.028l0.042-0.008L8.34,4.892
		l0.031,0.032l0.014,0.03l0.045,0.002L8.472,4.98v0.018l-0.03,0.038l0.003,0.044l0.022,0.057l0.011,0.082l0.019,0.039L8.504,5.31
		l-0.01,0.032l0.018,0.044l0.053,0.08l-0.003,0.02L8.548,5.51l0.017,0.039h0.018l0.013,0.022L8.621,5.65l0.03,0.016l0.011,0.033
		l0.005,0.057l0.02,0.024l0.028,0.008l0.022,0.051l0.013,0.043l0.029,0.026l0.01,0.025l0.031,0.002l0.017,0.015l0.03-0.014
		L8.888,5.95L8.887,6L8.869,6.029l0.008,0.069l0.081,0.077l0.028-0.004l0.02,0.008L8.998,6.219l0.021,0.044L9.06,6.274l0.001,0
		L9.094,6.27l0.035,0.047l0.007,0.037l0.038,0.021l0.012-0.013L9.191,6.37l0.005,0.026L9.186,6.409l-0.02-0.023L9.131,6.399
		L9.092,6.444L9.069,6.513L9.068,6.515l0.007,0.052l0.041,0.03L9.155,6.6l0.024,0.022l0.088,0.073L9.32,6.711l0.024,0l0.009,0.023
		L9.37,6.78l0.016,0.026L9.371,6.841l-0.03,0.013l0.005,0.025l0.04,0.024l0.062,0.027l0.003,0.028l0.022,0.017l0.058,0.054
		l0.066,0.093l0.049,0.097l0.071,0.078L9.72,7.345l0.081,0.11l0.008,0.043L9.792,7.543l0.017,0.034l0.024,0.068l0.047,0.129
		l0.003,0.05l-0.023,0.04L9.81,7.912L9.801,7.948l0.027,0.004l0.02,0.02L9.835,7.989l-0.05-0.001l-0.032,0.02v0.026l0.031,0.086
		L9.812,8.15v0.034l0.042,0.059L9.87,8.3l0,0.002l0.024,0.022h0.032L9.938,8.35l0.075,0.02l0.048-0.01l0.015,0.003l-0.016,0.022
		v0.027l0.057,0.022l0.054,0.054l0.07,0.118l0.001,0.002l0.049,0.02L10.31,8.62l0.042,0.018l0.029,0.003l0.084,0.035l0.04,0.003
		l0.011-0.019l0.018-0.001l0.018,0.025l0.108,0.112l0.001,0.002l0.029,0.005l0.062,0.068l0.098,0.043l0.11,0.017l0.05,0.028
		l0.028,0.049l0.064,0.005l0.059,0.03l0.031-0.013l0.008,0.007l0.031,0.053l0.058,0.028l0.04,0.004l0.016-0.005l0.04,0.026
		l0.081,0.034l0.077,0l0.058,0.034l0.11,0.043l0.001,0.001l0.046-0.004l0.114-0.051l0.048-0.003l0.061-0.043l0.043-0.008
		l0.054-0.005l0.03,0.004V9.122l0.019,0.01l0.032-0.002l0.037,0.014l0.066,0.045l0.042,0.04V9.198l-0.053-0.057l-0.071-0.034
		l-0.001-0.003l0.005-0.001l0.007,0.008l0.044,0.009l0.036,0.033l0.037,0.05v0.02l0.021,0.03l0.153,0.136l0.047,0.015l0.006,0.026
		l0.063,0.051l0.039,0.052l0,0l0.031,0.04l0.029,0.051l0.034,0.003l0.03,0.038l0.118,0.049l0.072,0.002l0.051-0.007l0.084,0.031
		l0.02,0.008l0.042,0l0.035,0.035l0.054,0.013l0.025-0.001l0.073,0.035l0.076,0.045l0.015-0.033L13.4,9.826l0.005-0.003l0.034,0.001
		l0.032,0.046l0.026,0.024l0.107,0.002l0.033-0.049l-0.011-0.022l0.001-0.001l0,0l0.006-0.007l0.018,0.01l0.013,0.019l0.026-0.002
		l0.008-0.013l0.009,0.005v0.025l0.009,0.027l-0.001,0.009l0,0l-0.001,0.012l-0.01,0.002l-0.044-0.017l-0.013,0.024l0.082,0.107
		l0.037,0.027v0.029l0.065,0.062l0.056,0.082l0.102,0.119l0.002,0.002l0.028,0.004l0.005,0.004l0,0l0.011,0.008l-0.011,0.047
		l-0.018,0.017l0.018,0.017l0.032,0.009l0.008,0.039l-0.036,0.023l-0.022,0.059l0.01,0.05l0.062,0.058l0.06,0.002l0.032,0.022
		l0.022,0.041h0.029l0.029-0.054l-0.012-0.046l-0.06-0.046l-0.011-0.02l0.011-0.01l0.035,0.029l0.038,0.021l0.003,0.039l0.044,0.033
		l0.015,0.048l0.052,0.031l0.039,0.038l0.028,0.018l0.046,0.058l0.006,0.018l-0.028,0.038v0.036l0.021,0.036l0.053,0.021
		l0.039,0.026l0.024-0.014l0.005-0.045l-0.022-0.031l-0.037-0.02v-0.001l0.009-0.007l0.019,0.014l0.037,0.047l-0.002,0.044
		l0.029,0.018l0.017,0.02l0.036,0.002l0.009-0.029l-0.002-0.022l0.01-0.001l0.02-0.002l0.038,0.007l0.042-0.008l0.018-0.013
		l0.013,0.015l-0.003,0.02l0.031,0.01l0.076,0.011l0.01,0.056l0.028,0.062l0.001,0.002l0.039,0.024l0.043-0.002l0.017-0.036
		l-0.015-0.018l0.01-0.017l0.022,0.004l0.01,0.015l-0.008,0.024l0.011,0.048l-0.008,0.035l0.017,0.031l0.07,0.012l0.028-0.047
		l0.028-0.031l0.038,0.007l0.028-0.01l0.004-0.056l-0.037-0.035l-0.035-0.027l-0.015-0.035l0.006-0.021l0.033-0.019l0.07-0.016
		l0.066-0.065l-0.003-0.028l-0.012-0.01l0.004-0.039l0.062-0.035l0.05-0.005l0.025,0.015l0.041,0.043l0.029,0.006l0.036,0.052
		l0.015,0.044l0.029,0.025l0.019-0.017l0.027-0.033l0.016-0.001l0.008,0.024l-0.014,0.016l-0.023,0.003l-0.037,0.061l-0.02,0.021
		l0.019,0.065l0.051,0.077l0.042,0.041l0.011,0.011l0.009,0.052l0.004,0.056l0.047,0.062l0.021-0.002l0.018-0.009l0.008,0.014
		l0.005,0.048l-0.027,0.032l-0.001,0.025l0.026,0.031v0.06l-0.026,0.021l-0.023,0.043l0.022,0.009l0.016,0.04l-0.005,0.079
		l0.004,0.108l-0.029,0.037l-0.007,0.039l0.031,0.046l0.032-0.015l-0.003,0.016l0.026,0.04l0.021-0.002l0.001,0.013l-0.021,0.028
		l-0.019,0.053l-0.082,0.088l-0.023,0.05l-0.06,0.062l-0.081,0.019l-0.066,0.052l-0.062,0.101l-0.01,0.081l-0.008,0.036
		l-0.013,0.058l-0.061,0.003l-0.105,0.079l-0.052,0.003l-0.066,0.035l0.031,0.059l0.003,0.033l0.019,0.035l-0.012,0.061
		l-0.083,0.096l-0.007,0.046l0.018,0.026l-0.037,0.059l-0.048,0.007l-0.042,0.063l0.017,0.041l0.016,0.047l-0.005,0.037l0.008,0.068
		l-0.022,0.042l-0.026,0.026l0.03,0.042l0.048,0.021l0.045,0.049l0.041,0.028l0.023-0.018l0.019-0.057l0.014-0.028l0.02-0.022
		l0.001,0.026l0.008,0.063l0.018-0.049l-0.003-0.03l0.001,0l0.013,0.056l-0.011,0.065l0,0.001l0.006,0.035l-0.021,0.057l-0.056,0.05
		l-0.003,0.003l-0.107,0.051l-0.042,0.041l-0.077,0.08l-0.017,0.062l-0.018,0.046l-0.001,0.002l0.006,0.026l0.035,0.031l0.004,0.028
		l-0.027,0.02v0.032l0.044,0.042l0.032,0.063l-0.004,0.039l-0.028,0.001l-0.04,0.019l-0.015,0.043l0.04,0.04l0.046,0.02l0.066,0.06
		l0.061,0.009l0.09,0.064l0.043,0.012l0.01,0.036l0.049,0.075l0.006,0.063l0.027,0.052l0.089,0.049l0.038,0.067l0.013,0.067
		l0.026,0.047l0.008,0.076l0.031,0.056l0.036,0.024l0.039,0.074l0.008,0.052l-0.013,0.02L15.73,15.6l0.07,0.093l0.026,0.047
		l-0.011,0.038l0.009,0.038l0.031,0.011l0.073,0.07l0.018,0.04l0.008,0.065l0.023,0.034l0.056,0.022l0.011,0.053l0.064,0.109
		l0.016,0.055l0.073,0.111l0.001,0.038l-0.011,0.005l-0.028-0.021l-0.003,0.037l0.008,0.039v0.044l0.031-0.006l0.024,0.017
		l0.006,0.026l-0.011,0.027l0.078,0.058l0.067,0.036l0.003,0.031l0.036,0.048l0.041,0.005l0.014,0.019l0.017,0.041l0.032,0.022
		l0.072-0.004l-0.003,0.008l0.041,0.049l0.072,0.041l0.03,0.029l0.006,0.036l0.036,0.025l0.055,0.021l0.002,0.001l0.02-0.008
		l0.034,0.01l0.086,0.056l0.058,0.024l0.042,0.003l0.016,0.009l0.012,0.031l0.062,0.049l0.033,0.021l0.048,0.048l0.029,0.013
		l0.012,0.026l-0.003,0.024l0.001,0.039l0.054,0.012l0.049,0.022l0.06,0.066l0.057,0.056l0.039,0.014l0.007,0.007l0.018,0.018
		l0.005,0.063l-0.006,0.051l0.01,0.068l0.035,0.176v0.065l-0.012,0.046l-0.025,0.029l0.018,0.094L17.6,18.28l0.028,0.074v0.121
		l-0.012,0.033l-0.01,0.023l0.008,0.168v0.037l-0.029,0.019l-0.033,0.025l0.005,0.097l0.019,0.033l0.03-0.023l0.009,0.008
		l-0.024,0.024l0.002,0.25l0.032,0.094l0.007,0.072l-0.008,0.06l-0.037,0.064v0.063l0.041,0.081l-0.009,0.048l-0.005,0.118
		l-0.023,0.043l-0.001,0.068l0.011,0.035v0.026L17.564,20l-0.004,0.063l-0.023,0.04l0.013,0.076l-0.007,0.03l-0.037,0.089l0,0.042
		l0.04,0.067l0.008,0.067l0.023,0.04l-0.029,0.022l-0.021,0.058l0.029,0.04l-0.028,0.036l-0.033,0.015l-0.002,0.067l0.01,0.052
		l0.005,0.049l0.051,0.142v0.075l-0.021,0.026l0.005,0.045l0.046,0.073l0.003,0.081l-0.014,0.058l0.002,0.026l0.011,0.039
		l-0.006,0.034l-0.012,0.044l0.014,0.027l0.049,0.072l0.006,0.037l-0.022,0.038l-0.032,0.021l-0.002,0.001l-0.031,0.068
		l-0.001,0.026l0.017,0.021l-0.015,0.052l-0.026,0.032v0.041l-0.006,0.071l-0.019,0.04l0.003,0.043l-0.01,0.019l-0.005,0.058
		l-0.026,0.03l0.004,0.029l0.015,0.026l-0.026,0.041l-0.002,0.066l-0.004,0.036l-0.03,0.022v0.046l-0.014,0.028l-0.004,0.038
		l0.014,0.04l0.001,0.044l-0.023,0.035l-0.02,0.002l-0.027-0.022l-0.039,0.01l-0.005,0.033l0,0.001l0.008,0.051l0.002,0.074
		l0.031,0.049l0.047,0.042l0.006,0.046l-0.008,0.065l0.069,0.125l0.011,0.034l0.027,0.028l0,0.076l-0.019,0.102l-0.019,0.016
		l0.009,0.035l-0.005,0.02l-0.01-0.007l-0.03,0.005l-0.016,0.048l0.012,0.048l0.027,0.024l-0.023,0.094l0,0.001l0.008,0.041
		l-0.023,0.03l0.025,0.024l-0.008,0.027l-0.011,0.018l0.086,0.143l0.02,0.022l0.016,0.037l0.068,0.031l0.069-0.019l0.003-0.069
		l0.006-0.009l0.033,0.001l0.036,0.045l0.018-0.013l0.013-0.002l-0.013,0.022l-0.05,0.048v0.037l0.044,0.021l0.02-0.013l0.003,0.025
		l0.005,0.084l0.019,0.025L17.809,24.2l-0.015-0.018l-0.017-0.041l-0.034-0.016l-0.017,0.031l0.004,0.029l0.042,0.033l0.005,0.016
		l-0.022,0.008l-0.024,0.021l0.004,0.064l0.034,0.035l-0.031,0.038l-0.004,0.038l0.013,0.011l-0.036,0.042l0.008,0.03l0.046,0.031
		l-0.011,0.036l-0.008,0.056l-0.027,0.036l-0.002,0.034l0.026,0.028l0.043,0.002l0.024,0.025l0.005,0.039l0.04,0.007l0.015,0.025
		l-0.005,0.071l-0.03,0.048l-0.054,0.036h-0.029l-0.006,0.053l0.017,0.049l-0.015,0.021l0.002,0.034l0.014,0.01l-0.027,0.035
		l-0.025,0.075l-0.002,0.054l-0.027-0.01l-0.06,0.021l-0.041,0.03l-0.015-0.002l0.001-0.01l0.036-0.014l0.03-0.023V25.25
		l-0.022-0.017l-0.047,0.018l-0.076,0.003l-0.026-0.009l-0.037,0.011l-0.002,0.033l0.025,0.055l0.015,0.002l0.007,0.026
		l-0.024,0.005l-0.015,0.046l-0.03,0.024l-0.016,0.039l-0.058,0.035l-0.004,0.042l0.064,0.076l0.04,0.006l0.025-0.029l-0.004-0.036
		l-0.04-0.012l-0.004-0.018l0.018-0.039l0.055-0.005l0.004-0.005l0.007,0.042l0.044,0.031l0.002,0.001l0.055-0.002l0.019-0.022
		l0.021,0.009l0.016,0.027l0.058,0.031l0.014,0.018l-0.016,0.003l-0.014,0.031l0.018,0.025l-0.021,0.017l-0.023,0.038l0.02,0.031
		l0.037,0.026l-0.001,0.002l-0.032-0.015l-0.016-0.024l-0.033,0.005l-0.004,0.046l0.035,0.034l0.015,0.034l0.065,0.011l0.057-0.031
		l0.022,0.024l0.026-0.002l0.021-0.009l-0.008,0.016l0.007,0.015l-0.008,0.006l-0.041,0.002l-0.009,0.013l-0.027-0.023l-0.073,0.021
		l-0.018,0.039l0.009,0.029l0.043,0.029l0.008,0.041l0.045,0.012l0.022-0.013l-0.002,0.009l-0.034,0.035l0.002,0.029l0.006,0.018
		l-0.01,0.021l-0.026,0.002l-0.004,0.037l0.025,0.111l-0.005-0.01l-0.023-0.107l-0.032-0.025H17.65l-0.028,0.026l0.002,0.057
		l-0.007-0.015l-0.052-0.025l-0.012-0.019l-0.033,0.033l0.024,0.083l-0.003,0.039l0.026,0.017l0.04-0.068l0.03-0.012l-0.013-0.03
		l0.024,0.027l-0.012,0.039l0.008,0.033l0.027-0.003l-0.024,0.022l-0.051,0.01l0.048,0.1l0.015,0.058l0.044,0.043l0.027-0.02
		l0.006-0.026l0.005,0.016l0.008,0.054l0.031,0.02l0.036-0.031l0.002-0.075l0-0.001l-0.023-0.063l0.009-0.016l-0.003-0.039
		l0.026,0.047l0.045,0.02l-0.03,0.029l0.007,0.026l-0.009,0.042v0.038l-0.021,0.016L17.8,26.683l0.004,0.035l0.063,0.049l0.086,0.02
		l0.029,0.023l-0.004,0.013l-0.023,0.002l0.015,0.052l0.022,0.033l0.028-0.034l-0.001,0.015l-0.008,0.025l-0.034,0.013l-0.03,0.045
		l0.029,0.02h0.027v0.025l0.037,0.047l0.027-0.002l0.013-0.014l-0.002,0.026l0,0.001l0.011,0.037l-0.009,0l-0.02-0.016l-0.028,0.005
		l-0.012,0.035l0.043,0.056l0.013,0.005l0.013,0.046l0.021,0.03l0.041,0.04l0.041-0.007L18.17,27.24l0.01-0.027l-0.006-0.018
		l0.018,0.013l0.006,0.035l0.034,0.051l0.02-0.057l0.028-0.03l-0.002-0.038l-0.034-0.012l-0.047-0.008v-0.006h0.026l0.067,0.021
		l0.012,0.018l0.057,0.002l-0.013-0.047l0.026,0.016l0.01,0.05l-0.028,0.034l-0.002,0.04l0.029,0.063l-0.003,0.029l-0.013,0.011
		l0.011-0.036l-0.031-0.079l-0.038-0.035l-0.022,0.036l-0.004,0.043l0.018,0.028l-0.011,0.023l-0.007-0.009l-0.01-0.043h-0.031
		l-0.033,0.026h-0.047l-0.054,0.022l0.045,0.036l0.003,0.053l0.019,0.037l0.007,0.026l-0.003,0.005l-0.015-0.049L18.1,27.47
		l-0.031-0.007l-0.045,0.019l0.027,0.023l0.04-0.002l0.006,0.021l0.025,0.023l0.025,0.015l0.017-0.029l0.008,0.018l0.038,0.008
		l0.016-0.034l0.014,0.009l0.03,0.011v0.005l-0.027,0.011l-0.036,0.034l0.012,0.033l0.055,0.005l0.062,0.038l0.022-0.009
		l-0.001,0.001l0.002,0.024l0.015,0.011l-0.013,0.017v0.026l0.068,0.024l0.047,0.044l0.021,0.001l0.011-0.028l-0.009-0.035
		l0.022-0.029l0.031-0.008l0.005-0.026l-0.029-0.035l0.049-0.011l0.038-0.037l0.037-0.058l0.02-0.013l0.004,0.006l0.034,0.021
		l0.022-0.001l0.001,0.002l-0.026,0.012l-0.023,0.04l-0.007,0.028l-0.039,0.041v0.051l0.012,0.031l-0.019,0.023l-0.023,0.011
		l0-0.005l0.019-0.015l0.001-0.065l-0.022-0.014l-0.026,0.021l-0.005,0.026l-0.01-0.004l-0.029,0.003l-0.021,0.028l0.025,0.043
		l0.073,0.076l0.064,0.011l0.042,0.025l0.027-0.002l0.031,0.018l0.024-0.026l0.027-0.054l0.001-0.002l-0.023-0.073l0.006-0.034
		l-0.003-0.03l0.007-0.063l0.004-0.072L18.81,27.54l0.006-0.028l0.052-0.033l0.052-0.065l0.027-0.013h0.046l0.021-0.023l-0.005-0.06
		l0.022-0.022l0.045-0.012l0.058,0.036l0.028-0.017l0.013,0.006l0.042,0.021l0.03,0.003l-0.006-0.055l-0.047-0.04l-0.072-0.048
		l-0.008-0.046l-0.043-0.044l-0.025,0.008l-0.015-0.016l0.029-0.018l0.01-0.039l-0.014-0.008v-0.03l-0.038-0.113l-0.042-0.07
		l-0.007-0.067l0.024-0.075l0.053-0.046l0.023-0.044l-0.017-0.02v-0.043l-0.004-0.005l0.029,0.035l0.039,0.014l0.051-0.045
		l0.007-0.038l0.039-0.048l0.015-0.041l-0.016-0.077l-0.041-0.011l-0.006,0.005l0.002-0.008l0.037-0.038l0.018-0.055l0.009-0.051
		l0.048-0.05l0.045-0.003l0.017-0.058l0.03-0.044l0.024-0.009l0.008-0.038l0.032-0.017l0.04-0.048l-0.009-0.019l0.004-0.026
		l0.031-0.023l-0.047-0.047h-0.012l0.029-0.03v-0.04l-0.025-0.058v-0.021l0.017-0.021l-0.018-0.032l-0.04-0.014l-0.02,0.011
		l-0.039-0.002l-0.07,0.006l-0.086-0.085l-0.059-0.055l-0.031-0.011l-0.043-0.037l-0.046-0.083v-0.052l-0.027-0.039l0.003-0.024
		l0.047-0.036l0.02-0.044l0.015-0.053l0.027-0.006l0.037-0.046l0.049-0.007l0.041-0.048l0.06-0.01l0.04,0.007l0.076-0.015
		l0.004-0.029l-0.023-0.024l-0.04-0.016l0.005-0.015l0.008-0.033l0.064-0.045l-0.013-0.015l0.018-0.028l0.003-0.028l-0.052-0.061
		l0.007-0.026l0-0.036l-0.016-0.026l-0.013-0.055l0.033-0.036l0.02-0.052l-0.015-0.018l0.021-0.025l0.067-0.027l0.052-0.051
		l-0.002-0.031l-0.069-0.022l-0.043-0.002l-0.016-0.028l0.007-0.021l0.038-0.031l0.055-0.022l0.048,0.027v0.022l-0.008,0.022
		l0.019,0.051l0.038,0.014l0.091-0.056l0.014-0.051l-0.022-0.052l-0.025-0.033l0.013-0.006l0.011-0.048l-0.033-0.06l-0.039-0.004
		l-0.044,0.031l-0.034,0.002l-0.028,0.025l0.019,0.015l0.034,0.01l-0.002,0.016l-0.068,0.022l-0.022-0.009l0.013-0.014l0.034-0.021
		l-0.036-0.02l-0.067,0.005l-0.047-0.028l-0.013-0.04l0.001-0.113l-0.018-0.087l-0.047-0.045l0.002-0.078l0.041-0.044l0.019-0.001
		l-0.012,0.022l0.02,0.013l0.05-0.005l0.082,0.028l0.077,0.069l0.07,0.019l0.001,0l0.125-0.002l0.002,0l0.081-0.059l-0.006-0.016
		l0.049-0.038l0.01-0.049l-0.011-0.033l0.012-0.024l0.015-0.046l-0.042-0.013l-0.025-0.046v-0.039l0.017-0.034l-0.009-0.021
		l0.039-0.042l-0.001-0.013l0.014-0.005l0.007-0.034l0-0.001l-0.009-0.047l-0.034-0.003l0.004-0.021l-0.021-0.033l0-0.082
		l-0.011-0.028v-0.035l0.007-0.008l0.016,0.023h0.033l0.06,0.021l0.05,0.035l0.047,0l0.067-0.013l0.074,0.012l0.094-0.005
		l0.156-0.043l0.135-0.06l0.003-0.001l0.004-0.019l0.011,0.017l0.1-0.036l0.121-0.08l0.002-0.001l0.019-0.05l-0.013-0.055
		l0.021-0.07l0.006-0.006l0.007,0.029l0.024-0.036l0.017-0.076l0.043-0.074l0.01-0.05l0-0.102l-0.01-0.043l-0.019-0.003
		l-0.029,0.033l-0.043-0.002l-0.054-0.039l-0.032-0.065l0.003-0.031l0.054-0.115l0.004-0.052l-0.028-0.038l-0.115-0.095
		l-0.093-0.038l-0.091-0.075l-0.02-0.038l0.013-0.014l-0.002-0.046l-0.027-0.03l0.008-0.024l-0.012-0.064l0.026,0.074l0.066,0.099
		l0.023,0.005l0.061,0.066l0.036,0.01l0.097-0.01l0.056,0.004l0.051,0.038l0.037,0.007l0.032,0.002l0.007,0.007l-0.005,0.013
		l-0.002,0.034l0.053,0.002l0.049-0.032l0.059-0.011l0.041,0.015l0.03,0.019l0.024-0.005l0.031,0.013l0.037,0.004l0.026-0.02
		l0.005-0.028l0.005-0.004l0.017,0.016l0.086-0.034l0.002-0.001l0.055-0.068l0.017-0.03l-0.008-0.008l0.019-0.032l0.044-0.044
		v-0.067l0.033-0.042l0.024-0.021l-0.005-0.004l0.079-0.07l0.029-0.072l0.037-0.165l0.033-0.113l0.014-0.022l-0.019-0.026
		l-0.032-0.056l0.016-0.048l0.032-0.017l0.002-0.03l0.037-0.045v-0.034l0.022,0.019l0.03,0.005l0.037-0.046l0.005-0.048l0.014-0.016
		l0.003-0.054l0.016-0.022h0.022l0.016-0.046l-0.011-0.034l-0.024-0.027l0.003-0.072l-0.019-0.019l0.022,0.007l0.026,0.056
		l0.053,0.062h0.021l0.022-0.014l0.014,0.015l0.005,0.041l-0.017,0.005l-0.021,0.082L22,20.797l-0.046,0.002l-0.006,0.06
		l-0.016,0.032l-0.014-0.005l-0.046,0.027l-0.034,0.031l-0.003,0.025l-0.036,0.007l-0.018,0.019l0.002,0.026l0.043,0.014l0.14-0.118
		l0.072-0.087l0.104-0.19l0.04-0.096l0.04-0.123l0.1-0.205l0.099-0.126l0.016-0.038l-0.01-0.013l0.005-0.032L22.451,20l0.016-0.053
		l0.029-0.019l-0.01-0.043l0.01-0.031l-0.01-0.014l-0.017-0.015l0.003-0.048l-0.043-0.065v-0.029l0.008-0.029l-0.008-0.031
		l-0.014-0.068l-0.022-0.072l0.018-0.017l0.056-0.012l-0.014-0.039L22.424,19.4l0.053-0.014l0.002-0.046l-0.054-0.026l0.045-0.013
		l0.029-0.044l0.022,0.019l0.07-0.07l0.041-0.029l-0.002-0.024l0.059-0.054l0.069-0.048l0.091-0.111l0.08-0.01l0.043-0.044
		l0.048-0.041h0.045l0.029,0.026l0.034,0.008l0.002-0.034l0.033-0.063l0.094-0.063l0.037-0.012v-0.019l-0.022-0.015l-0.03-0.007
		l-0.014-0.029l0.033-0.009l0.057-0.037l0.033,0.01l0.038-0.003l0.027-0.023l0.038,0.002l-0.002,0.019l-0.054,0.032l-0.056,0.012
		l-0.011,0.014l0.018,0.016l0.085-0.034l0.103-0.044l-0.009-0.018l0.027-0.025l0.026,0.004l-0.009,0.027
		c0,0,0.002,0.039,0.006,0.041c0.004,0.002,0.065,0.01,0.065,0.01l0.036-0.021h0.061l0.073,0.008l0.045-0.032l0.001-0.024
		l-0.011-0.012l0.006-0.024l0.1-0.073l0.084-0.032l0.043-0.028l0.013-0.029l-0.012-0.018l-0.037-0.09l0.027-0.062l0.031-0.04
		l0.002-0.046l0.021-0.018l0.037-0.028l0.008-0.048l-0.011-0.007l0.062-0.108l0.085-0.106l0.001-0.048l-0.017-0.15l-0.014-0.029
		l0.027-0.09l0.022-0.036l0.005-0.031l0.065-0.056l0.009-0.027l-0.017-0.088l0.035-0.106l-0.01-0.082l0.013-0.062l-0.003-0.034
		l0.019-0.089l-0.022-0.321l-0.001-0.059l0.018-0.045l0-0.043l-0.019,0.022l-0.035-0.027v-0.027l0.032-0.053l-0.008-0.053
		l0.008-0.036l0.029-0.008l0.006-0.056l-0.03-0.053l-0.059-0.029l0.016-0.007l0.008-0.02l0.011,0.026l0.035,0.022l0.032,0.012
		l0.013-0.051l0.03,0.002l0.013,0.029l0.022,0.012l-0.024,0.036l-0.032,0.026l-0.008,0.029l0.022,0.002l0.043-0.043l0.059-0.032
		l0.075-0.123l0.033-0.09l0.011-0.055l0.029-0.027l0.029-0.082l0.032-0.07l0.116-0.085l0.014-0.041l0.035-0.012l0.026-0.044
		l0.099-0.096l0.088-0.126l0.022-0.034l0.054-0.128l0.014-0.056l0.027-0.041v-0.041l-0.029-0.046L25.284,14.873z M11.595,7.721
		L11.563,7.69l0.004-0.031l0.038,0.053l0.005,0.066L11.595,7.721z M12.14,9.099L12.122,9.1l-0.017,0.019l-0.043-0.007h-0.029
		L12.032,9.1l0.043-0.027l0.009,0.005v0.033l0.035-0.02h0.02V9.099z M16.606,10.419l-0.029,0.028l-0.013-0.006l0.007-0.034
		l-0.003-0.007l0.041-0.015l0.001,0.002L16.606,10.419z M17.684,25.501l-0.005-0.008l0.008-0.011L17.684,25.501z M17.723,25.366
		l-0.003,0.087l-0.024,0.014l0.012-0.071l-0.006-0.039l0.009-0.026l0,0.002l0.022,0.011L17.723,25.366z M17.676,26.363l-0.003,0.003
		l0.003-0.005L17.676,26.363z M17.801,26.407l-0.003-0.038l-0.016-0.032l0.02,0.027L17.801,26.407z M17.921,26.303l-0.01,0.001
		l0.008-0.006L17.921,26.303z M17.885,26.475l-0.011,0.01l0-0.085l0.022-0.086l0.008-0.006l-0.026,0.101l0.004,0.03l0.038,0.027
		l0.006,0L17.885,26.475z M18.222,27.103l-0.001-0.01l0.017-0.007l0.055,0.022L18.222,27.103z M18.61,27.48l-0.018,0.027
		l-0.019-0.005l-0.029-0.024l-0.032,0.009l-0.07,0.065l-0.013,0.002l-0.023-0.005l-0.031,0.036l0.007,0.029L18.38,27.62
		l-0.016-0.043l0.011-0.036l-0.016-0.047l-0.022,0.013l-0.018-0.003l0.03-0.024l-0.001-0.027l0.013-0.008l0.049,0.018l0.017-0.011
		l0.006,0.019l0.031,0.014l0.012-0.026l0.038-0.01l0.038,0.013l0.043-0.005l0.033,0.003l0.002,0.007L18.61,27.48z"/>
	<polygon class="st1" points="21.826,13.033 21.839,13.053 21.862,13.061 21.863,13.039 21.858,13.019 21.83,13.006 	"/>
	<polygon class="st1" points="18.768,8.677 18.697,8.732 18.804,8.716 	"/>
	<polygon class="st1" points="19.404,8.728 19.38,8.676 19.338,8.734 19.389,8.784 	"/>
	<polygon class="st1" points="19.123,8.79 19.152,8.834 19.215,8.843 19.166,8.758 	"/>
	<polygon class="st1" points="19.428,8.875 19.341,8.815 19.337,8.869 19.362,8.9 	"/>
	<polygon class="st1" points="19.124,8.689 19.126,8.627 19.167,8.576 19.093,8.579 19.051,8.612 19.059,8.641 	"/>
	<polygon class="st1" points="18.656,8.667 18.683,8.642 18.606,8.62 18.555,8.673 	"/>
	<polygon class="st1" points="18.207,8.686 18.315,8.691 18.344,8.702 18.42,8.681 18.45,8.697 18.526,8.659 18.592,8.584 
		18.544,8.568 18.533,8.54 18.502,8.524 18.411,8.538 18.25,8.522 18.245,8.522 18.227,8.558 18.186,8.58 18.191,8.616 18.185,8.64 
			"/>
	<polygon class="st1" points="17.932,8.615 17.905,8.585 17.881,8.598 17.901,8.639 17.938,8.655 17.981,8.622 	"/>
	<polygon class="st1" points="15.132,8.352 15.152,8.305 15.092,8.307 15.072,8.362 	"/>
	<polygon class="st1" points="16.155,8.602 16.113,8.528 15.94,8.517 15.939,8.517 15.857,8.536 15.808,8.531 15.807,8.531 
		15.767,8.54 15.737,8.587 15.786,8.627 15.815,8.616 15.838,8.628 15.862,8.687 15.896,8.716 15.947,8.715 15.982,8.744 
		16.044,8.746 16.045,8.696 16.074,8.696 16.092,8.719 16.122,8.71 16.137,8.675 16.163,8.689 16.243,8.689 16.25,8.658 
		16.21,8.613 	"/>
	<polygon class="st1" points="16.992,8.477 16.978,8.426 16.93,8.388 16.88,8.415 16.916,8.447 	"/>
	<path class="st1" d="M16.994,8.184l-0.035-0.013l-0.089,0L16.85,8.21h0.009c0.005,0.003,0.028,0.017,0.044,0.027l0.111,0.04
		l-0.011,0.02l0.016,0.038l-0.016,0.06l0.023,0.046l0.043,0.012l0.043,0.042l-0.008,0.02l-0.089-0.003L17,8.525l-0.035-0.011
		l-0.001,0l-0.052,0.005l-0.047-0.021l-0.049,0.022L16.813,8.5L16.788,8.49l-0.067,0.018l-0.037-0.039l-0.052,0.029l-0.02,0.034
		l0.019,0.046l0.054,0.007l0.053,0.064l0.001,0.001l0.034,0.012l0.005-0.047l0.02-0.017h0.093l0.04,0.023l0.126,0.004l0.021-0.014
		l0.033,0.017l0.03,0.003v0l0.011,0.001l0.003,0v0l0.012,0.001l0.021,0.047l-0.016,0.042l0.043,0.019l0.011,0.024l0.037,0.02
		l0.029-0.076l0.056-0.079l-0.007-0.024l0.013-0.024l0.021,0.021l0.037,0.004l0.026-0.055l0.023,0.014l0.003,0.046l0.031,0.021
		l0.062-0.018l0.061-0.058l0.06-0.011l0.069,0.01l0.041-0.016l0.03,0.026l0.052,0.003l0.068,0.019l0.013-0.039h0.026l0.024-0.045
		l-0.022-0.039L17.889,8.41h-0.034l-0.054-0.019l-0.036,0.002l-0.057-0.03l-0.045-0.029l0.028,0.008l0.095,0.01l0.002,0l0.05-0.02
		L17.798,8.3l-0.027,0.005l-0.067-0.014l-0.035-0.074h-0.044l-0.018,0.007l-0.026-0.02l-0.187-0.044L17.391,8.16L17.37,8.174
		l-0.04-0.011l-0.078,0.014L17.229,8.22l0,0.001l-0.036-0.009L17.157,8.22l-0.037-0.04L17.02,8.167L16.994,8.184z"/>
	<polygon class="st1" points="16.962,8.122 17.005,8.155 17.113,8.153 17.014,8.091 	"/>
	<polygon class="st1" points="14.434,7.642 14.442,7.647 14.444,7.693 14.507,7.653 14.546,7.65 14.59,7.578 14.646,7.59 
		14.667,7.571 14.694,7.593 14.744,7.583 14.809,7.498 14.847,7.489 14.873,7.458 14.931,7.468 14.973,7.466 15.068,7.478 
		15.087,7.496 15.069,7.512 15.02,7.507 14.978,7.539 15.019,7.575 15.152,7.597 15.154,7.598 15.181,7.587 15.217,7.587 
		15.252,7.619 15.317,7.628 15.351,7.626 15.365,7.604 15.386,7.62 15.389,7.646 15.463,7.704 15.526,7.715 15.547,7.702 
		15.584,7.735 15.626,7.728 15.66,7.745 15.722,7.722 15.742,7.731 15.778,7.868 15.854,7.966 15.896,7.967 15.911,7.954 
		15.957,7.984 16.033,7.984 16.044,8.007 16.078,8.02 16.073,8.056 16.02,8.07 15.943,8.144 15.941,8.195 16.023,8.211 
		16.026,8.211 16.077,8.183 16.115,8.199 16.223,8.172 16.281,8.18 16.358,8.217 16.477,8.188 16.491,8.163 16.517,8.168 
		16.549,8.14 16.621,8.15 16.622,8.15 16.682,8.134 16.71,8.079 16.686,8.052 16.647,8.047 16.621,7.983 16.521,7.94 16.405,7.939 
		16.385,7.931 16.403,7.913 16.421,7.847 16.386,7.834 16.348,7.85 16.311,7.847 16.233,7.785 16.228,7.782 16.206,7.803 
		16.175,7.773 16.111,7.721 16.077,7.759 16.067,7.746 16.077,7.715 16.042,7.698 16.029,7.724 16.007,7.699 15.923,7.679 
		15.868,7.623 15.817,7.593 15.759,7.545 15.636,7.538 15.595,7.518 15.58,7.469 15.525,7.404 15.485,7.414 15.466,7.388 
		15.299,7.362 15.297,7.362 15.243,7.384 15.179,7.37 15.139,7.319 15.033,7.299 14.941,7.303 14.897,7.342 14.777,7.349 
		14.684,7.373 14.683,7.373 14.649,7.406 14.554,7.435 14.522,7.476 14.48,7.501 14.473,7.562 14.498,7.597 14.492,7.609 
		14.458,7.588 14.379,7.638 14.342,7.626 14.34,7.67 14.39,7.696 	"/>
	<polygon class="st1" points="14.784,7.726 14.75,7.701 14.762,7.748 14.816,7.771 14.885,7.75 14.892,7.699 14.851,7.646 
		14.803,7.635 14.784,7.677 14.798,7.708 14.813,7.719 14.801,7.73 	"/>
	<polygon class="st1" points="16.738,7.521 16.712,7.525 16.705,7.563 16.737,7.565 16.834,7.504 16.837,7.502 16.841,7.444 
		16.841,7.443 16.83,7.413 16.776,7.431 16.779,7.472 	"/>
	<polygon class="st1" points="17.002,7.794 17.002,7.721 16.961,7.768 	"/>
	<polygon class="st1" points="16.513,7.227 16.54,7.283 16.516,7.3 16.556,7.369 16.585,7.408 16.627,7.413 16.584,7.328 
		16.571,7.27 16.524,7.177 	"/>
	<polygon class="st1" points="16.498,7.079 16.479,7.103 16.503,7.137 16.564,7.132 16.567,7.096 16.533,7.029 16.52,6.977 
		16.466,6.935 16.456,6.977 16.49,7.019 	"/>
	<polygon class="st1" points="16.353,7.221 16.409,7.221 16.365,7.158 	"/>
	<polygon class="st1" points="17.006,7.565 17.054,7.589 17.059,7.557 16.986,7.512 16.937,7.536 16.963,7.569 	"/>
	<polygon class="st1" points="16.735,7.108 16.713,7.063 16.677,7.126 16.71,7.158 	"/>
	<polygon class="st1" points="16.688,7.414 16.719,7.452 16.764,7.461 16.757,7.409 16.693,7.372 	"/>
	<polygon class="st1" points="16.812,7.938 16.938,7.923 16.978,7.866 16.978,7.795 16.951,7.812 16.926,7.843 16.883,7.816 
		16.825,7.856 	"/>
	<polygon class="st1" points="16.366,6.85 16.353,6.88 16.322,6.897 16.349,6.931 16.381,6.921 16.401,6.841 16.36,6.777 
		16.287,6.733 16.281,6.782 16.336,6.805 	"/>
	<polygon class="st1" points="16.036,6.969 15.995,6.89 15.985,6.832 15.944,6.814 15.926,6.884 15.889,6.953 15.927,6.991 
		15.96,6.972 15.97,7.016 	"/>
	<polygon class="st1" points="15.975,7.143 16,7.209 16.045,7.199 16.068,7.152 16.056,7.12 16.061,7.086 16.038,7.06 15.995,7.085 
		15.989,7.04 16.008,7.072 16.051,7.012 15.984,7.033 15.989,7.04 15.952,7.073 15.986,7.09 15.973,7.098 	"/>
	<polygon class="st1" points="16.161,6.856 16.186,6.809 16.124,6.794 16.055,6.833 16.095,6.854 	"/>
	<polygon class="st1" points="16.131,6.406 16.178,6.473 16.151,6.501 16.164,6.547 16.144,6.648 16.199,6.587 16.196,6.547 
		16.238,6.518 16.238,6.446 16.206,6.423 16.198,6.377 16.127,6.325 16.027,6.328 16.124,6.362 	"/>
	<polygon class="st1" points="15.899,6.463 15.981,6.4 16.022,6.41 16.077,6.418 16.013,6.354 15.94,6.354 15.88,6.393 
		15.855,6.375 15.782,6.375 15.849,6.454 	"/>
	<polygon class="st1" points="11.838,6.159 11.86,6.098 11.858,6.059 11.89,6.034 11.938,5.972 11.996,5.889 11.915,5.954 
		11.857,6.048 11.856,6.042 11.85,6.059 11.844,6.069 11.847,6.066 11.804,6.185 	"/>
	<polygon class="st1" points="8.79,6.688 8.772,6.722 8.785,6.744 8.794,6.801 8.83,6.776 8.823,6.737 	"/>
	<polygon class="st1" points="8.871,6.896 8.835,6.885 8.83,6.931 8.862,6.934 	"/>
	<polygon class="st1" points="17.863,10.055 17.887,10.106 17.918,10.111 17.951,10.157 17.965,10.1 17.919,10.051 	"/>
	<polygon class="st1" points="17.503,9.981 17.541,10.039 17.603,10.036 17.552,9.986 	"/>
	<path class="st1" d="M18.757,10.388l0.005,0.006l-0.003,0.005c0.002,0.001,0.013,0.01,0.021,0.017l0.003,0.002l0.05-0.012
		l0.048,0.014l0.041-0.054l-0.026-0.042l-0.066,0.053l-0.021-0.031l-0.05,0.039C18.758,10.386,18.758,10.387,18.757,10.388z"/>
	<polygon class="st1" points="17.725,10.028 17.706,10.064 17.73,10.116 17.786,10.13 17.819,10.092 17.771,10.085 	"/>
	<polygon class="st1" points="15.271,13.727 15.223,13.773 15.196,13.819 15.199,13.838 15.217,13.864 15.25,13.853 15.268,13.814 
		15.265,13.784 15.277,13.752 	"/>
	<polygon class="st1" points="19.994,28.059 19.912,28.079 19.869,28.075 19.817,28.023 19.752,28.002 19.731,27.976 19.558,27.916 
		19.514,27.901 19.511,27.848 19.453,27.796 19.451,27.795 19.396,27.787 19.372,27.711 19.345,27.661 19.288,27.671 19.242,27.653 
		19.243,27.65 19.258,27.615 19.284,27.603 19.321,27.642 19.294,27.501 19.222,27.424 19.185,27.366 19.178,27.369 19.176,27.37 
		19.166,27.375 19.111,27.399 19.095,27.413 19.065,27.383 19.026,27.372 19.005,27.415 19.015,27.453 19.009,27.481 18.972,27.519 
		18.963,27.534 18.923,27.51 18.891,27.5 18.858,27.55 18.892,27.578 18.919,27.574 18.915,27.597 18.877,27.638 18.891,27.67 
		18.894,27.723 18.894,27.725 18.94,27.788 18.979,27.785 19.012,27.745 19.073,27.709 19.114,27.711 19.124,27.743 19.097,27.793 
		19.053,27.806 19.045,27.831 18.975,27.867 18.975,27.892 18.982,27.915 19.024,27.961 19.074,27.994 19.112,27.99 19.184,28.018 
		19.289,28.093 19.338,28.106 19.338,28.106 19.358,28.111 19.438,28.095 19.5,28.095 19.546,28.086 19.511,28.093 19.454,28.115 
		19.341,28.12 19.341,28.12 19.326,28.12 19.285,28.092 19.208,28.061 19.097,28.025 19.039,28.004 19.034,28.033 19.046,28.051 
		19.036,28.059 18.947,28.02 18.902,27.994 18.884,28.013 18.905,28.04 19,28.09 19.002,28.096 18.983,28.096 18.968,28.103 
		18.967,28.121 18.96,28.123 18.949,28.098 18.897,28.064 18.877,28.083 18.88,28.111 18.861,28.115 18.787,28.121 18.761,28.137 
		18.78,28.156 18.778,28.16 18.745,28.153 18.695,28.167 18.705,28.205 18.759,28.215 18.802,28.213 18.815,28.189 18.823,28.183 
		18.845,28.193 18.89,28.225 18.91,28.216 18.918,28.227 18.918,28.255 18.939,28.268 18.915,28.281 18.894,28.329 18.923,28.365 
		18.953,28.365 18.977,28.375 19.014,28.415 19.048,28.415 19.056,28.391 19.026,28.366 18.985,28.34 18.981,28.325 18.983,28.325 
		19.017,28.341 19.047,28.317 19.057,28.288 19.021,28.28 19.008,28.27 19.092,28.235 19.128,28.216 19.3,28.263 19.303,28.264 
		19.332,28.244 19.328,28.222 19.365,28.222 19.379,28.222 19.394,28.222 19.47,28.195 19.562,28.204 19.625,28.199 19.714,28.209 
		19.763,28.237 19.816,28.257 19.87,28.242 19.912,28.197 19.921,28.158 19.962,28.145 19.983,28.164 20.047,28.125 20.038,28.076 	
		"/>
	<polygon class="st1" points="20.249,28.104 20.19,28.107 20.154,28.131 20.199,28.174 20.252,28.138 20.297,28.126 20.349,28.074 
		20.279,28.07 	"/>
	<path class="st1" d="M17.509,24.933l0,0.002c0,0.003,0,0.005,0.021,0.024l0.007,0.006l0.01-0.024l0.055-0.011l0.031-0.036
		l-0.112-0.002L17.509,24.933z"/>
	<polygon class="st1" points="17.552,26.157 17.537,26.106 17.502,26.09 17.476,26.082 17.478,26.159 17.503,26.179 17.506,26.204 
		17.543,26.197 	"/>
	<polygon class="st1" points="17.551,26.492 17.574,26.522 17.566,26.548 17.596,26.581 17.63,26.555 17.642,26.511 17.611,26.456 	
		"/>
	<polygon class="st1" points="17.47,24.77 17.479,24.799 17.509,24.807 17.548,24.79 17.554,24.763 17.528,24.733 17.488,24.731 	
		"/>
	<polygon class="st1" points="17.654,24.812 17.624,24.89 17.674,24.895 	"/>
	<polygon class="st1" points="17.618,25.228 17.595,25.18 17.556,25.172 17.54,25.144 17.514,25.185 17.561,25.241 	"/>
	<polygon class="st1" points="17.668,26.793 17.668,26.853 17.746,26.793 	"/>
	<polygon class="st1" points="17.526,24.712 17.557,24.752 17.57,24.711 17.542,24.689 	"/>
	<polygon class="st1" points="17.867,26.868 17.939,26.937 17.916,26.862 17.876,26.793 17.847,26.791 17.817,26.765 17.79,26.766 
		17.787,26.791 17.826,26.852 	"/>
	<polygon class="st1" points="17.797,26.931 17.847,26.998 17.892,27 17.913,26.962 17.867,26.888 17.815,26.857 17.785,26.865 	"/>
	<polygon class="st1" points="17.67,25.162 17.599,25.165 17.632,25.211 	"/>
	<polygon class="st1" points="17.517,25.233 17.508,25.177 17.477,25.18 17.479,25.23 	"/>
	<polygon class="st1" points="17.479,24.89 17.515,24.874 17.557,24.865 17.529,24.808 17.471,24.805 17.483,24.842 	"/>
	<polygon class="st1" points="17.371,24.591 17.402,24.623 17.472,24.595 17.433,24.563 17.394,24.563 	"/>
	<polygon class="st1" points="17.509,24.625 17.541,24.659 17.602,24.617 17.525,24.598 	"/>
	<polygon class="st1" points="17.333,24.936 17.399,24.967 17.418,24.927 17.39,24.895 17.339,24.895 	"/>
	<polygon class="st1" points="17.411,24.879 17.436,24.906 17.475,24.875 17.441,24.839 	"/>
	<polygon class="st1" points="17.617,24.627 17.587,24.655 17.619,24.684 17.623,24.72 17.665,24.696 17.658,24.64 	"/>
	<polygon class="st1" points="17.626,24.791 17.564,24.815 17.626,24.879 	"/>
	<polygon class="st1" points="17.597,25.104 17.54,25.109 17.595,25.173 	"/>
	<polygon class="st1" points="17.644,26.163 17.692,26.157 17.748,26.163 17.722,26.073 17.688,26.04 17.685,25.987 17.643,25.968 
		17.638,25.886 17.595,25.913 17.555,25.919 17.532,25.953 17.577,25.994 17.635,26.088 17.646,26.068 17.656,26.077 17.631,26.1 	
		"/>
	<polygon class="st1" points="17.488,25.96 17.47,25.981 17.469,26.013 17.48,26.073 17.527,26.083 17.551,26.103 17.547,26.119 
		17.565,26.193 17.608,26.221 17.626,26.19 17.63,26.133 17.59,26.071 17.533,25.975 17.532,25.973 	"/>
	<polygon class="st1" points="17.78,26.882 17.78,26.839 17.76,26.796 17.743,26.847 17.76,26.913 	"/>
	<path class="st1" d="M18.139,27.808l-0.006,0.002l-0.005-0.005L18.1,27.829l0.085,0.026l-0.02-0.019
		C18.154,27.825,18.141,27.811,18.139,27.808z"/>
	<polygon class="st1" points="18.088,27.251 18.05,27.206 18.025,27.147 17.995,27.148 17.996,27.228 18.023,27.26 18.079,27.289 
		18.104,27.286 	"/>
	<polygon class="st1" points="18.579,27.991 18.576,27.961 18.565,27.951 18.575,27.946 18.617,27.95 18.597,27.902 18.561,27.886 
		18.519,27.9 18.51,27.877 18.481,27.864 18.42,27.817 18.418,27.815 18.368,27.818 18.33,27.834 18.312,27.825 18.292,27.805 
		18.313,27.814 18.363,27.814 18.374,27.793 18.358,27.769 18.338,27.766 18.298,27.735 18.277,27.71 18.224,27.71 18.19,27.69 
		18.152,27.675 18.115,27.672 18.088,27.655 18.042,27.597 18.009,27.573 17.992,27.604 18.003,27.654 18.033,27.714 18.081,27.722 
		18.14,27.749 18.162,27.784 18.201,27.784 18.218,27.774 18.273,27.797 18.284,27.801 18.248,27.804 18.231,27.828 18.235,27.859 
		18.277,27.883 18.293,27.926 18.335,27.937 18.378,27.991 18.379,27.993 18.416,27.999 18.447,27.993 18.416,28.017 18.457,28.048 
		18.483,28.022 18.452,27.991 18.463,27.989 18.481,28.001 18.486,28.032 18.518,28.067 18.56,28.048 18.547,28.023 	"/>
	<polygon class="st1" points="18.089,27.308 18.052,27.299 18.03,27.316 18.061,27.349 18.041,27.333 18.022,27.359 18.041,27.393 
		18.093,27.452 18.118,27.441 18.12,27.399 18.073,27.36 18.1,27.356 	"/>
	<polygon class="st1" points="17.935,27.33 17.936,27.379 17.919,27.398 17.93,27.425 17.96,27.408 17.982,27.35 17.967,27.319 	"/>
	<path class="st1" d="M19.635,28.535c-0.008,0.006-0.018,0.013-0.022,0.016l-0.013-0.01l0.006,0.023l0.025,0.018l0.045-0.048h-0.039
		L19.635,28.535z"/>
	<polygon class="st1" points="18.601,28.025 18.571,28.06 18.572,28.103 18.612,28.089 18.634,28.052 18.647,28.032 18.616,28.018 	
		"/>
	<polygon class="st1" points="19.667,28.436 19.685,28.473 19.659,28.508 19.685,28.539 19.72,28.542 19.722,28.494 19.715,28.454 	
		"/>
	<polygon class="st1" points="18.92,27.815 18.911,27.763 18.874,27.739 18.866,27.795 18.85,27.842 18.87,27.882 18.855,27.908 
		18.855,27.949 18.898,27.975 18.94,27.987 18.959,28.007 18.984,27.974 18.936,27.936 18.964,27.907 18.944,27.878 18.948,27.861 	
		"/>
	<polygon class="st1" points="17.968,27.281 17.968,27.255 17.975,27.278 18.012,27.306 18.035,27.303 18.022,27.266 17.968,27.236 
		17.968,27.233 17.943,27.207 17.921,27.182 17.901,27.195 17.897,27.206 17.897,27.201 17.878,27.164 17.829,27.17 17.842,27.197 
		17.849,27.205 17.836,27.217 17.822,27.245 17.836,27.285 17.859,27.302 17.902,27.311 17.875,27.266 17.895,27.25 17.896,27.245 
		17.899,27.26 17.907,27.274 17.912,27.297 17.937,27.304 	"/>
	<polygon class="st1" points="19.408,28.316 19.442,28.279 19.468,28.28 19.486,28.322 19.507,28.354 19.564,28.35 19.604,28.321 
		19.623,28.33 19.646,28.363 19.686,28.335 19.713,28.306 19.687,28.279 19.679,28.236 19.633,28.223 19.567,28.225 19.515,28.23 
		19.444,28.222 19.386,28.25 19.281,28.276 19.23,28.267 19.208,28.272 19.173,28.272 19.13,28.294 19.164,28.328 19.192,28.314 
		19.211,28.324 19.16,28.345 19.122,28.365 19.12,28.393 19.162,28.426 19.177,28.413 19.171,28.428 19.205,28.441 19.217,28.469 
		19.249,28.454 19.299,28.479 19.325,28.476 19.331,28.431 19.298,28.411 19.301,28.398 19.337,28.394 19.35,28.433 19.388,28.461 
		19.422,28.441 19.45,28.449 19.499,28.497 19.527,28.502 19.527,28.449 19.478,28.404 19.448,28.391 19.461,28.375 19.437,28.354 
		19.381,28.341 19.379,28.34 19.37,28.344 19.343,28.322 19.38,28.316 	"/>
	<polygon class="st1" points="18.799,28.325 18.839,28.365 18.874,28.325 18.847,28.301 	"/>
	<polygon class="st1" points="18.75,28.069 18.767,28.051 18.779,28.069 18.82,28.082 18.853,28.055 18.841,28.027 18.859,27.989 
		18.835,27.972 18.808,27.977 18.794,27.993 18.778,27.968 18.694,27.944 18.678,27.959 18.614,27.966 18.615,27.999 18.641,28.015 
		18.665,28.06 18.688,28.035 18.721,28.04 	"/>
	<polygon class="st1" points="18.859,28.252 18.818,28.23 18.802,28.27 18.822,28.29 18.855,28.289 	"/>
	<polygon class="st1" points="17.406,24.131 17.395,24.171 17.407,24.202 17.42,24.216 17.438,24.272 17.446,24.415 17.422,24.472 
		17.481,24.498 17.562,24.49 17.562,24.463 17.558,24.416 17.573,24.388 17.615,24.403 17.632,24.386 17.584,24.338 17.603,24.318 
		17.551,24.262 17.548,24.244 17.565,24.243 17.615,24.272 17.618,24.249 17.6,24.225 17.577,24.207 17.598,24.213 17.599,24.156 
		17.589,24.138 17.591,24.077 17.591,24.074 17.551,24.012 17.509,23.992 17.454,23.99 17.419,24.025 17.417,24.056 17.433,24.079 
		17.43,24.111 	"/>
	<polygon class="st1" points="17.676,25.028 17.63,25.028 17.635,24.977 17.593,24.982 17.534,25.003 17.564,25.033 17.615,25.031 
		17.573,25.057 17.602,25.082 17.617,25.134 17.653,25.154 17.682,25.111 	"/>
	<polygon class="st1" points="17.682,24.754 17.698,24.787 17.763,24.782 17.709,24.736 	"/>
	<polygon class="st1" points="17.691,24.88 17.69,24.882 17.699,24.921 17.703,24.989 17.743,24.945 17.76,24.949 17.782,24.961 
		17.817,24.953 17.83,24.919 17.857,24.877 17.82,24.833 17.809,24.796 17.762,24.787 17.712,24.808 	"/>
	<polygon class="st1" points="17.626,24.144 17.678,24.19 17.701,24.153 17.672,24.122 	"/>
	<polygon class="st1" points="17.732,24.6 17.678,24.639 17.699,24.682 17.732,24.648 	"/>
	<polygon class="st1" points="17.885,27.105 17.89,27.091 17.926,27.089 17.928,27.053 17.86,27.006 17.833,27.008 17.802,26.978 
		17.762,26.988 17.787,27.032 17.767,27.076 17.744,27.101 17.772,27.123 17.836,27.11 	"/>
	<polygon class="st1" points="17.715,26.656 17.691,26.643 17.675,26.658 17.673,26.687 17.654,26.714 17.684,26.738 17.696,26.777 
		17.723,26.778 17.752,26.753 17.75,26.711 17.772,26.665 	"/>
	<polygon class="st1" points="19.286,8.923 19.26,8.997 19.311,8.986 	"/>
	<polygon class="st1" points="19.375,9.036 19.359,9.091 19.424,9.197 19.458,9.091 19.412,9.034 	"/>
	<polygon class="st1" points="19.523,9.136 19.465,9.178 19.515,9.203 	"/>
	<polygon class="st1" points="19.535,9.1 19.497,8.98 19.441,9.036 19.47,9.093 	"/>
	<polygon class="st1" points="19.457,9.241 19.434,9.281 19.432,9.284 19.452,9.366 19.505,9.353 19.503,9.279 19.47,9.241 
		19.469,9.237 19.466,9.237 19.462,9.232 	"/>
	<polygon class="st1" points="19.45,9.463 19.505,9.523 19.494,9.56 19.53,9.564 19.573,9.587 19.577,9.534 19.577,9.533 
		19.553,9.443 19.45,9.414 	"/>
	<polygon class="st1" points="19.571,9.7 19.553,9.607 19.49,9.698 19.499,9.75 19.545,9.773 	"/>
	<polygon class="st1" points="19.919,9.898 19.917,9.844 19.87,9.796 19.82,9.85 19.853,9.9 	"/>
	<path class="st1" d="M19.455,10L19.455,10l-0.01-0.02l-0.002,0.023c0,0.003-0.006,0.024-0.011,0.043l-0.002,0.008h0.053L19.455,10
		L19.455,10L19.455,10z"/>
	<polygon class="st1" points="19.462,9.953 19.514,9.844 19.484,9.763 	"/>
	<polygon class="st1" points="19.408,10.156 19.439,10.111 19.417,10.074 19.362,10.086 19.343,10.154 	"/>
	<polygon class="st1" points="19.546,10.396 19.46,10.436 19.42,10.418 19.365,10.435 19.349,10.47 19.393,10.511 19.395,10.549 
		19.355,10.586 19.296,10.611 19.363,10.639 19.476,10.62 19.525,10.575 19.523,10.52 19.502,10.479 19.551,10.426 	"/>
	<polygon class="st1" points="19.618,10.333 19.547,10.367 19.605,10.394 	"/>
</g>
</svg>
